<svg xmlns="http://www.w3.org/2000/svg" xmlns:xlink="http://www.w3.org/1999/xlink" x="0px" y="0px" style="enable-background:new 0 0 565.5 286.5" version="1.1" viewBox="0 0 565.5 286.5" xml:space="preserve">
    <g id="Text">
        <text transform="matrix(1 0 0 1 45.1689 60.4644)">
            <tspan x="0" y="0">Cross</tspan><tspan x="-12.5" y="15">Platform</tspan>
        </text>
        <text transform="matrix(1 0 0 1 141.5708 22.5952)">
            Applications
        </text>
        <text transform="matrix(1 0 0 1 348.0771 14.0054)">
            <tspan x="0" y="0">Artificial</tspan><tspan x="-10.5" y="15">Intelligence</tspan>
        </text>
        <text transform="matrix(1 0 0 1 1.459 204.7451)">
            Hyperlocation
        </text>
        <text transform="matrix(1 0 0 1 379.2217 267.2285)">
            <tspan x="0" y="0">Crypto</tspan><tspan x="-7.5" y="15">Currency</tspan>
        </text>
        <text transform="matrix(1 0 0 1 487.1348 203.3369)">
            <tspan x="0" y="0">Augmented</tspan><tspan x="15.3" y="15">Reality</tspan>
        </text>
    </g>
    <g id="Figure">
        <linearGradient id="SVGID_1_" x1="107.1983" x2="176.2428" y1="119.5905" y2="119.5905" gradientUnits="userSpaceOnUse">
            <stop offset="0" style="stop-color:#0000FF"/>
            <stop offset="1" style="stop-color:#00FFFF"/>
        </linearGradient>
        <polygon fill="url(#SVGID_1_)" points="107.2,205 176.2,171.8 176.2,34.2 107.2,74 		"/>
        <linearGradient id="SVGID_2_" x1="107.1983" x2="472.3479" y1="139.7773" y2="139.7773" gradientUnits="userSpaceOnUse">
            <stop offset="0" style="stop-color:#0000FF"/>
            <stop offset="1" style="stop-color:#00FFFF"/>
        </linearGradient>
        <path fill="url(#SVGID_2_)" d="M107.2,74l296.7,171.4c0,0,70.2-40.4,68.5-39.8c-1.8,0.6-296.1-171.4-296.1-171.4L107.2,74z"/>
        <linearGradient id="SVGID_3_" x1="176.2428" x2="267.5222" y1="192.1458" y2="192.1458" gradientUnits="userSpaceOnUse">
            <stop offset="0" style="stop-color:#0000FF"/>
            <stop offset="1" style="stop-color:#00FFFF"/>
        </linearGradient>
        <line x1="176.2" x2="267.5" y1="165.8" y2="218.5" fill="url(#SVGID_3_)"/>
        <linearGradient id="SVGID_4_" x1="438.6709" x2="438.6709" y1="245.3921" y2="100.2814" gradientUnits="userSpaceOnUse">
            <stop offset="0" style="stop-color:#00FFFF"/>
            <stop offset="1" style="stop-color:#0000FF"/>
        </linearGradient>
        <polygon fill="url(#SVGID_4_)" points="473.5,100.3 473.5,205.6 403.9,245.4 403.9,136.1 		"/>
        <linearGradient id="SVGID_5_" x1="107.1983" x2="473.4857" y1="152.9425" y2="152.9425" gradientUnits="userSpaceOnUse">
            <stop offset="0" style="stop-color:#0000FF"/>
            <stop offset="1" style="stop-color:#00FFFF"/>
        </linearGradient>
        <polygon fill="url(#SVGID_5_)" points="107.2,205 381.6,47.6 473.5,100.3 199.1,258.3 		"/>
    </g>
</svg>
