<svg xmlns="http://www.w3.org/2000/svg" xmlns:xlink="http://www.w3.org/1999/xlink" x="0px" y="0px" style="enable-background:new 0 0 838 991" version="1.1" viewBox="0 0 838 991" xml:space="preserve">
    <g>
        <text style="fill:#FFFFFF;font-family:'Titillium Web', sans-serif; font-weight:400;font-size:33.64px" transform="matrix(1 0 0 1 441.6548 31.0205)">
            Cross Platform
        </text>
        <text style="fill:#FFFFFF;font-family:'Titillium Web', sans-serif; font-weight:400;font-size:33.64px" transform="matrix(1 0 0 1 658.6729 228.5161)">
            Applications
        </text>
        <text transform="matrix(1 0 0 1 455.4746 942.1055)">
            <tspan x="0" y="0" style="fill:#FFFFFF;font-family:'Titillium Web', sans-serif; font-weight:400;font-size:33.64px">Artificial</tspan>
			<tspan x="-23" y="32.8" style="fill:#FFFFFF;font-family:'Titillium Web', sans-serif; font-weight:400;font-size:33.64px">Intelligence</tspan>
        </text>
        <text style="fill:#FFFFFF;font-family:'Titillium Web', sans-serif; font-weight:400;font-size:33.64px" transform="matrix(1 0 0 1 137.0435 31.0205)">
            Hyperlocation
        </text>
        <text transform="matrix(1 0 0 1 18.8481 715.2568)">
            <tspan x="0" y="0" style="fill:#FFFFFF;font-family:'Titillium Web', sans-serif; font-weight:400;font-size:33.64px">Crypto</tspan>
			<tspan x="-16.4" y="32.8" style="fill:#FFFFFF;font-family:'Titillium Web', sans-serif; font-weight:400;font-size:33.64px">Currency</tspan>
        </text>
        <text transform="matrix(1 0 0 1 154.1315 941.9385)">
            <tspan x="0" y="0" style="fill:#FFFFFF;font-family:'Titillium Web', sans-serif; font-weight:400;font-size:33.64px">Augmented</tspan>
			<tspan x="33.4" y="32.8" style="fill:#FFFFFF;font-family:'Titillium Web', sans-serif; font-weight:400;font-size:33.64px">Reality</tspan>
        </text>
    </g>
    <g id="Figure">
        <linearGradient id="SVGID_1_X" x1="7891.3188" x2="8042.4204" y1="-3438.1445" y2="-3438.1445" gradientTransform="matrix(0 1 -1 0 -2993.3972 -7813.9043)" gradientUnits="userSpaceOnUse">
            <stop offset="0" style="stop-color:#0000FF"/>
            <stop offset="1" style="stop-color:#00FFFF"/>
        </linearGradient>
        <polygon points="257.8,77.4 343.6,228.5 631.7,228.5 544.6,77.4" style="fill:url(#SVGID_1_X)"/>
        <linearGradient id="SVGID_2_X" x1="7891.3188" x2="8690.4365" y1="-3393.9666" y2="-3393.9666" gradientTransform="matrix(0 1 -1 0 -2993.3972 -7813.9043)" gradientUnits="userSpaceOnUse">
            <stop offset="0" style="stop-color:#0000FF"/>
            <stop offset="1" style="stop-color:#00FFFF"/>
        </linearGradient>
        <path d="M544.6,77.4L169.4,726.6c0,0,88.4,153.7,87.1,149.8c-1.3-3.8,375.2-647.9,375.2-647.9
			L544.6,77.4z" style="fill:url(#SVGID_2_X)"/>
        <linearGradient id="SVGID_3_X" x1="8042.4204" x2="8242.1826" y1="-3279.3596" y2="-3279.3596" gradientTransform="matrix(0 1 -1 0 -2993.3972 -7813.9043)" gradientUnits="userSpaceOnUse">
            <stop offset="0" style="stop-color:#0000FF"/>
            <stop offset="1" style="stop-color:#00FFFF"/>
        </linearGradient>
        <line x1="343.6" x2="228.3" y1="228.5" y2="428.3" style="fill:url(#SVGID_3_X)"/>
        <linearGradient id="SVGID_4_X" x1="7891.3188" x2="8692.9268" y1="-3365.1548" y2="-3365.1548" gradientTransform="matrix(0 1 -1 0 -2993.3972 -7813.9043)" gradientUnits="userSpaceOnUse">
            <stop offset="0" style="stop-color:#0000FF"/>
            <stop offset="1" style="stop-color:#00FFFF"/>
        </linearGradient>
        <polygon points="257.8,77.4 602.3,678 485.7,879 141.3,278.5" style="fill:url(#SVGID_4_X)"/>
        <linearGradient id="SVGID_5_X" x1="8616.7354" x2="8616.7354" y1="-3162.832" y2="-3480.4019" gradientTransform="matrix(0 1 -1 0 -2993.3972 -7813.9043)" gradientUnits="userSpaceOnUse">
            <stop offset="0" style="stop-color:#00FFFF"/>
            <stop offset="1" style="stop-color:#0000FF"/>
        </linearGradient>
        <polygon points="487,879 256.5,879 169.4,726.6 398.3,726.6" style="fill:url(#SVGID_5_X)"/>
    </g>
</svg>
