<?xml version="1.0" encoding="utf-8"?>
<!-- Generator: Adobe Illustrator 23.0.3, SVG Export Plug-In . SVG Version: 6.00 Build 0)  -->
<svg version="1.1" id="Layer_1" xmlns="http://www.w3.org/2000/svg" xmlns:xlink="http://www.w3.org/1999/xlink" x="0px" y="0px"
	 viewBox="0 0 146.8 101.9" style="enable-background:new 0 0 146.8 101.9;" xml:space="preserve">
<g style="opacity:0.87;enable-background:new    ;">
	<g id="XMLID_10_">
		<g id="XMLID_17_">
			<path id="XMLID_18_" d="M71.9,6.1c0.3-0.1,0.6-0.2,0.9-0.2c0.2,0,0.5-0.1,0.7,0.1c0.6,0.1,1.1,0.4,1.5,0.9
				c1.7,1.7,3.4,3.4,5.1,5.1c0.2,0.2,0.4,0.3,0.5,0.5c-1.9,2-3.9,3.9-5.8,5.8c-0.6,0.6-1.3,1.3-1.9,1.9c-0.8,0.8-1.7,1.6-2.5,2.5
				c-3.8,3.8-7.5,7.5-11.3,11.3c-1.8,1.8-3.5,3.5-5.3,5.3c-1.9,1.9-3.8,3.8-5.7,5.7c0-4.2,0-8.3,0-12.5c0-0.8,0-1.6,0-2.4
				c0-0.2,0.1-0.3,0.1-0.4c0.1-0.2,0.2-0.4,0.3-0.6c0.3-0.4,0.6-0.7,0.9-1C56.6,21.1,63.8,14,70.9,6.8C71.2,6.5,71.5,6.3,71.9,6.1z"
				/>
		</g>
		<g id="XMLID_15_" style="opacity:0.9;">
			<path id="XMLID_16_" d="M74.8,18.4c1.9-1.9,3.9-3.9,5.8-5.8c5.2,5.3,10.5,10.5,15.7,15.7c0.5,0.5,1,0.9,1.2,1.6
				c0.2,0.4,0.1,0.9,0.1,1.4c0,7.7,0,15.4,0,23c0.1,1.5-1.3,2.9-2.8,2.8c-2.7,0-5.5,0-8.2,0c0-3.7,0-7.3,0-11c0-4,0-8.1,0-12.1
				c-3.4-3.4-6.8-6.8-10.2-10.2c-1.2-1.2-2.4-2.4-3.6-3.6C73.6,19.6,74.2,19,74.8,18.4z"/>
		</g>
		<g id="XMLID_13_" style="opacity:0.7;">
			<path id="XMLID_14_" d="M53.9,39.3c1.8-1.8,3.5-3.5,5.3-5.3c0,4,0,8.1,0,12.1c0,3.7,0,7.3,0,11c-2.9,0-5.7,0-8.6,0
				c-1.2-0.2-2.3-1.2-2.4-2.4c0-3.2,0-6.5,0-9.7C50.1,43.2,52,41.2,53.9,39.3z"/>
		</g>
		<g id="XMLID_11_" style="opacity:0.8;">
			<path id="XMLID_12_" d="M59.2,46.1c9.2,0,18.4,0,27.5,0c0,3.7,0,7.3,0,11c-9.2,0-18.4,0-27.5,0C59.2,53.5,59.2,49.8,59.2,46.1z"
				/>
		</g>
	</g>
	<g>
		<g>
			<path d="M86.2,91.3V74.5h2.2v6.9h8.7v-6.9h2.2v16.8h-2.2v-7.9h-8.7v7.9H86.2z"/>
			<path d="M101.6,85.2c0-2.3,0.6-3.9,1.9-5c1-0.9,2.3-1.4,3.8-1.4c1.7,0,3,0.5,4.1,1.6c1.1,1.1,1.6,2.6,1.6,4.5
				c0,1.6-0.2,2.8-0.7,3.7c-0.5,0.9-1.2,1.6-2,2.1c-0.9,0.5-1.9,0.7-2.9,0.7c-1.7,0-3.1-0.5-4.1-1.6
				C102.1,88.8,101.6,87.2,101.6,85.2z M103.7,85.2c0,1.6,0.3,2.7,1,3.5c0.7,0.8,1.5,1.2,2.6,1.2c1,0,1.9-0.4,2.6-1.2
				c0.7-0.8,1-2,1-3.6c0-1.5-0.3-2.6-1-3.4c-0.7-0.8-1.5-1.2-2.5-1.2c-1,0-1.9,0.4-2.6,1.2C104,82.5,103.7,83.6,103.7,85.2z"/>
			<path d="M114.9,91.3V79.1h1.8v1.7c0.4-0.6,0.9-1.1,1.5-1.4c0.6-0.4,1.4-0.5,2.2-0.5c0.9,0,1.6,0.2,2.2,0.6c0.6,0.4,1,0.9,1.2,1.6
				c1-1.4,2.2-2.1,3.8-2.1c1.2,0,2.1,0.3,2.8,1c0.6,0.7,1,1.7,1,3.1v8.3h-2v-7.7c0-0.8-0.1-1.4-0.2-1.8c-0.1-0.4-0.4-0.7-0.7-0.9
				c-0.4-0.2-0.8-0.3-1.2-0.3c-0.9,0-1.6,0.3-2.1,0.9c-0.6,0.6-0.8,1.5-0.8,2.7v7.1h-2.1v-7.9c0-0.9-0.2-1.6-0.5-2.1
				c-0.3-0.5-0.9-0.7-1.6-0.7c-0.6,0-1.1,0.2-1.6,0.5c-0.5,0.3-0.8,0.8-1.1,1.3c-0.2,0.6-0.3,1.4-0.3,2.5v6.3H114.9z"/>
			<path d="M142.3,87.3l2.1,0.3c-0.3,1.2-1,2.2-1.9,2.9c-0.9,0.7-2.1,1-3.5,1c-1.8,0-3.2-0.5-4.2-1.6c-1-1.1-1.6-2.6-1.6-4.6
				c0-2,0.5-3.6,1.6-4.8c1.1-1.1,2.4-1.7,4.1-1.7c1.6,0,3,0.6,4,1.7c1,1.1,1.5,2.7,1.5,4.7c0,0.1,0,0.3,0,0.5h-9.1
				c0.1,1.3,0.5,2.4,1.1,3.1c0.7,0.7,1.5,1.1,2.5,1.1c0.8,0,1.4-0.2,1.9-0.6C141.6,88.8,142,88.2,142.3,87.3z M135.6,84h6.8
				c-0.1-1-0.4-1.8-0.8-2.3c-0.7-0.8-1.5-1.2-2.6-1.2c-0.9,0-1.7,0.3-2.4,0.9C136,82.1,135.6,83,135.6,84z"/>
		</g>
		<g id="layer1_2_" transform="translate(-39.48794,-563.5689)">
			<path id="path2998_2_" d="M60,644.7h-9.1v2.7h6.4c-0.3,3.8-3.5,5.4-6.4,5.4c-3.8,0-7.1-3-7.1-7.2c0-4.1,3.2-7.2,7.1-7.2
				c3.1,0,4.9,1.9,4.9,1.9l1.9-2c0,0-2.4-2.7-6.8-2.7c-5.6,0-10,4.8-10,9.9c0,5,4.1,9.9,10.1,9.9c5.3,0,9.2-3.6,9.2-9
				C60.2,645.3,60,644.7,60,644.7L60,644.7z"/>
			<path id="path3000_2_" d="M67.5,642.7c-3.7,0-6.4,2.9-6.4,6.3c0,3.5,2.6,6.4,6.4,6.4c3.5,0,6.3-2.7,6.3-6.3
				C73.9,644.9,70.5,642.7,67.5,642.7L67.5,642.7z M67.5,645.2c1.8,0,3.6,1.5,3.6,3.9c0,2.3-1.7,3.9-3.6,3.9c-2,0-3.6-1.6-3.6-3.9
				C63.9,646.9,65.4,645.2,67.5,645.2L67.5,645.2z"/>
			<path id="path3005_2_" d="M81.4,642.7c-3.7,0-6.4,2.9-6.4,6.3c0,3.5,2.6,6.4,6.4,6.4c3.5,0,6.3-2.7,6.3-6.3
				C87.8,644.9,84.5,642.7,81.4,642.7L81.4,642.7z M81.4,645.2c1.8,0,3.6,1.5,3.6,3.9c0,2.3-1.7,3.9-3.6,3.9c-2,0-3.6-1.6-3.6-3.9
				C77.8,646.9,79.4,645.2,81.4,645.2L81.4,645.2z"/>
			<path id="path3007_2_" d="M95,642.7c-3.4,0-6.1,3-6.1,6.4c0,3.8,3.1,6.4,6.1,6.4c1.8,0,2.8-0.7,3.5-1.5v1.3
				c0,2.2-1.3,3.5-3.3,3.5c-1.9,0-2.9-1.4-3.3-2.3l-2.4,1c0.9,1.8,2.6,3.8,5.7,3.8c3.4,0,6-2.1,6-6.6v-11.4h-2.7v1.1
				C97.7,643.3,96.5,642.7,95,642.7z M95.3,645.2c1.7,0,3.4,1.4,3.4,3.9c0,2.5-1.7,3.9-3.4,3.9c-1.8,0-3.5-1.5-3.5-3.8
				C91.7,646.7,93.5,645.2,95.3,645.2L95.3,645.2z"/>
			<path id="path3011_2_" d="M113,642.7c-3.2,0-5.9,2.6-5.9,6.4c0,4,3,6.4,6.3,6.4c2.7,0,4.3-1.5,5.3-2.8l-2.2-1.5
				c-0.6,0.9-1.5,1.8-3.1,1.8c-1.8,0-2.6-1-3.1-1.9l8.5-3.5l-0.4-1C117.5,644.4,115.6,642.7,113,642.7L113,642.7z M113.1,645.2
				c1.2,0,2,0.6,2.4,1.4l-5.7,2.4C109.5,647.1,111.3,645.2,113.1,645.2z"/>
			<path id="path3015_2_" d="M103,655.1h2.8v-18.8H103V655.1z"/>
		</g>
	</g>
</g>
</svg>
