<?xml version="1.0" encoding="utf-8"?>
<!-- Generator: Adobe Illustrator 23.0.3, SVG Export Plug-In . SVG Version: 6.00 Build 0)  -->
<svg version="1.1" id="Layer_1" xmlns="http://www.w3.org/2000/svg" xmlns:xlink="http://www.w3.org/1999/xlink" x="0px" y="0px"
	 viewBox="0 0 214.7 35.9" style="enable-background:new 0 0 214.7 35.9;" xml:space="preserve">
<g>
	<g>
		<path d="M73.9,22.8c0.3-0.1,0.5-0.2,0.7-0.4c0.1-0.1,0.1-0.1,0.1-0.1v-3.5c-0.1-0.1-0.1-0.1-0.1-0.1h-2h-0.1c0,0,0,0,0,0.1v2.1
			h-0.2c-0.2,0-0.4,0.1-0.6,0.1c-0.6,0.1-1.2,0-1.7-0.2c-0.4-0.2-0.7-0.4-0.9-0.7c-0.3-0.3-0.5-0.6-0.6-1s-0.2-0.8-0.2-1.2
			c0-0.4,0.1-0.8,0.2-1.2c0.1-0.4,0.4-0.7,0.6-1c0.3-0.3,0.6-0.5,0.9-0.7c0.7-0.3,1.5-0.3,2.2-0.1c0.3,0.1,0.6,0.3,0.9,0.4
			c0,0,0,0,0.1,0c0,0,0,0,0.1-0.1l1.2-1.7c0-0.1,0-0.1-0.1-0.1c-0.4-0.3-0.9-0.5-1.4-0.7s-1-0.2-1.6-0.2c-0.5,0-1,0.1-1.4,0.2
			c-0.5,0.1-0.9,0.3-1.3,0.5s-0.8,0.5-1.1,0.8c-0.3,0.3-0.6,0.7-0.8,1.1c-0.2,0.4-0.4,0.8-0.5,1.3C66,17,65.9,17.5,65.9,18
			s0.1,1,0.2,1.4c0.1,0.5,0.3,0.9,0.5,1.3s0.5,0.8,0.8,1.1c0.3,0.3,0.7,0.6,1.1,0.8c0.4,0.2,0.8,0.4,1.3,0.5
			c0.7,0.2,1.5,0.2,2.3,0.1c0.3,0,0.6-0.1,0.9-0.2C73.3,23,73.6,22.9,73.9,22.8z"/>
		<path d="M90,23c0,0.1,0,0.1,0.1,0.1h2.1c0.1,0,0.1,0,0.1,0V23c-0.2-1.7-0.3-3.4-0.5-5.1s-0.4-3.4-0.5-5.1v-0.1h-0.1h-2.5
			c-0.1,0-0.1,0-0.1,0.1l-2.2,7.4L84,12.9c0-0.1-0.1-0.1-0.1-0.1h-2.5h-0.1v0.1l-1,10.2c0,0,0,0,0,0.1c0,0,0,0,0.1,0h2.1
			c0.1,0,0.1,0,0.1-0.1l0.8-6.8l2,6.8c0,0,0,0,0,0.1h1.9c0-0.1,0.1-0.1,0.1-0.1l2-6.8L90,23z"/>
		<path d="M105,23.1C105.1,23.1,105.1,23.1,105,23.1C105.1,23.1,105.1,23.1,105,23.1l0.1-3.7h3.5c0.1-0.1,0.1-0.1,0.1-0.1v-1.7v-0.1
			c0,0,0,0-0.1,0h-3.5v-2.7h4.7c0.1,0,0.1,0,0.1,0v-0.1v-1.8v-0.1c0,0,0,0-0.1,0h-7v0.1v10.5v-0.2L105,23.1L105,23.1z"/>
		<path d="M113.7,23.1h2.1c0.1,0,0.1,0,0.1-0.1V12.9c-0.1-0.1-0.1-0.1-0.1-0.1h-2.1h-0.1c0,0,0,0,0,0.1L113.7,23.1
			C113.6,23.1,113.6,23.1,113.7,23.1C113.6,23.1,113.6,23.1,113.7,23.1z"/>
		<path d="M126.1,19.8L128,23l0.1,0.1h2.3c0.1,0,0.1,0,0.1,0V12.8c0-0.1-0.1-0.1-0.1-0.1h-2.1c-0.1,0-0.1,0-0.1,0.1v6.6l-0.4-0.7
			c-0.6-1-1.2-2-1.8-2.9c-0.6-1-1.2-2-1.8-3l-0.1-0.1H124h-2.4h-0.1c0,0,0,0,0,0.1V23v0.1c0,0,0,0,0.1,0h2.1c0.1,0,0.1,0,0.1,0
			s0,0,0-0.1v-7.1l0.4,0.7C124.8,17.7,125.5,18.8,126.1,19.8z"/>
		<path d="M137.5,21.5l0.1-0.2h4.2l0.3,0.9c0.1,0.2,0.2,0.5,0.3,0.7c0,0.1,0,0.1,0.1,0.1c0,0,0,0,0.1,0h2.1c0.1,0,0.1,0,0.1,0
			l-4-10.3c0,0,0,0-0.1-0.1h-0.1h-1.9c-0.1,0-0.1,0-0.1,0s0,0-0.1,0.1l0,0l-4,10.2l0,0h2.2c0.1,0,0.1,0,0.1-0.1
			c0.1-0.3,0.2-0.5,0.3-0.7C137.3,22,137.4,21.8,137.5,21.5z M138.3,19.2c0.1-0.2,0.2-0.5,0.3-0.8s0.2-0.6,0.3-0.9s0.2-0.6,0.3-0.9
			s0.2-0.6,0.3-0.8l0.2-0.6l1.4,4.3h-2.9L138.3,19.2z"/>
		<path d="M152.7,19.8l1.9,3.2l0.1,0.1h2.3c0.1,0,0.1,0,0.1,0V12.8c0-0.1-0.1-0.1-0.1-0.1h-2c-0.1,0-0.1,0-0.1,0.1v6.6l-0.4-0.7
			c-0.6-1-1.2-2-1.8-2.9c-0.6-1-1.2-2-1.8-3l-0.1-0.1h-0.1h-2.4h-0.1c0,0,0,0,0,0.1V23v0.1c0,0,0,0,0.1,0h2.1c0.1,0,0.1,0,0.1,0
			s0,0,0-0.1v-7.1l0.4,0.7C151.4,17.7,152.1,18.8,152.7,19.8z"/>
		<path d="M170.7,22.3L170.7,22.3l-1.3-1.8l0,0c0,0,0,0-0.1,0c-0.2,0.2-0.5,0.3-0.8,0.4c-0.7,0.2-1.5,0.2-2.2-0.1
			c-0.4-0.2-0.7-0.4-0.9-0.7c-0.3-0.3-0.5-0.6-0.6-1s-0.2-0.8-0.2-1.2s0.1-0.8,0.2-1.2c0.1-0.4,0.4-0.7,0.6-1
			c0.3-0.3,0.6-0.5,0.9-0.7c0.7-0.3,1.5-0.3,2.2-0.1c0.3,0.1,0.6,0.3,0.9,0.5l0,0l1.2-1.8l0,0c0,0,0-0.1-0.1-0.1l0,0
			c-0.4-0.3-0.9-0.5-1.4-0.7s-1-0.2-1.6-0.2c-0.5,0-1,0.1-1.4,0.2c-0.5,0.1-0.9,0.3-1.3,0.5c-0.4,0.2-0.8,0.5-1.1,0.8
			s-0.6,0.7-0.8,1.1c-0.2,0.4-0.4,0.8-0.5,1.3c-0.1,0.5-0.2,0.9-0.2,1.4s0.1,1,0.2,1.4c0.1,0.5,0.3,0.9,0.5,1.3s0.5,0.8,0.8,1.1
			c0.3,0.3,0.7,0.6,1.1,0.8c0.4,0.2,0.8,0.4,1.3,0.5c1,0.3,2.1,0.2,3-0.1c0.5-0.2,1-0.4,1.4-0.7C170.7,22.3,170.7,22.3,170.7,22.3z"
			/>
		<path d="M174.5,23.1h2.1c0.1,0,0.1,0,0.1-0.1V12.9c-0.1-0.1-0.1-0.1-0.1-0.1h-2.1h-0.1c0,0,0,0,0,0.1L174.5,23.1
			C174.4,23.1,174.4,23.1,174.5,23.1C174.4,23.1,174.5,23.1,174.5,23.1z"/>
		<path d="M183.7,21.5l0.1-0.2h4.2l0.3,0.9c0.1,0.2,0.2,0.5,0.3,0.7c0,0.1,0,0.1,0.1,0.1c0,0,0,0,0.1,0h2.1c0.1,0,0.1,0,0.1,0
			l-4-10.3c0,0,0,0-0.1-0.1h-0.1h-1.9c-0.1,0-0.1,0-0.1,0s0,0-0.1,0.1l0,0l-4,10.2l0,0h2.2c0.1,0,0.1,0,0.1-0.1
			c0.1-0.3,0.2-0.5,0.3-0.7C183.5,22,183.6,21.8,183.7,21.5z M184.5,19.2c0.1-0.2,0.2-0.5,0.3-0.8s0.2-0.6,0.3-0.9s0.2-0.6,0.3-0.9
			s0.2-0.6,0.3-0.8l0.2-0.6l1.4,4.3h-2.9L184.5,19.2z"/>
		<path d="M194.7,23.1h6.5c0,0,0,0,0.1,0V23v-1.9V21c0,0,0,0-0.1,0H197v-8.2c0,0,0,0,0-0.1h-0.1h-2.2h-0.1c0,0,0,0,0,0.1L194.7,23.1
			C194.6,23.1,194.6,23.1,194.7,23.1C194.6,23.1,194.6,23.1,194.7,23.1z"/>
	</g>
	<rect x="53.1" y="3.3" width="1" height="28.4"/>
	<g>
		<rect x="18.9" y="21.8" style="fill-rule:evenodd;clip-rule:evenodd;" width="13.7" height="2.9"/>
		<path style="fill-rule:evenodd;clip-rule:evenodd;" d="M21.3,21.3c0.4,0,1.3-0.3,1.6-0.8v0.6h1.6V15h-2.7v1.5h1.1v1.9
			c0,1-0.5,1.2-1.2,1.2c-1.1,0-1.1-1-1.1-2.3v-2.8c0-0.8-0.2-2.6,1.1-2.6c0.9,0,1.1,0.3,1.2,1.2v0.8h1.6v-1.3
			c-0.1-1.9-1.4-2.3-2.8-2.3c-1.5,0-2.8,0.6-2.8,3.4v2.8C18.9,19.5,18.6,21.3,21.3,21.3z"/>
		<polygon style="fill-rule:evenodd;clip-rule:evenodd;" points="27,14.1 28.3,21.1 29.6,21.1 31,14.1 31,21.1 32.6,21.1 32.6,10.6 
			30.4,10.6 29,17.6 27.6,10.6 25.4,10.6 25.4,21.1 27,21.1 		"/>
		<path style="fill-rule:evenodd;clip-rule:evenodd;" d="M39.1,4.7H12.2v25.6h26.9V4.7z M38.2,29.4h-25V5.6h25V29.4z"/>
	</g>
</g>
</svg>
