<?xml version="1.0" encoding="utf-8"?>
<!-- Generator: Adobe Illustrator 23.0.3, SVG Export Plug-In . SVG Version: 6.00 Build 0)  -->
<svg version="1.1" id="Layer_1" xmlns="http://www.w3.org/2000/svg" xmlns:xlink="http://www.w3.org/1999/xlink" x="0px" y="0px"
	 viewBox="0 0 214.7 35.9" style="enable-background:new 0 0 214.7 35.9;" xml:space="preserve">
<g>
	<path d="M49.6,11.2v1.5H44l0,3.4h4l0,1.8h-4v6.4h-1.8V11.2H49.6z"/>
	<path d="M22.3,11.2v1.5h-5.7l0,3.4h4l0,1.8h-4v6.4h-1.8V11.2H22.3z"/>
	<path d="M53.4,24.5h-1.8V11.2h1.8V24.5z"/>
	<polygon points="63,11.2 63,19.5 58.5,12.6 57.6,11.2 56.7,11.2 56.7,13.1 56.7,24.5 58.5,24.5 58.5,15.8 63,22.7 64.1,24.5 
		64.7,24.5 64.7,22.2 64.7,11.2 	"/>
	<polygon points="84,11.2 84,19.5 79.5,12.6 78.7,11.2 77.8,11.2 77.8,13.1 77.8,24.5 79.5,24.5 79.5,15.8 84,22.7 85.2,24.5 
		85.8,24.5 85.8,22.2 85.8,11.2 	"/>
	<path d="M72.1,11.2l4.3,13.2h-2.2l-0.7-2.6h-4.3l-0.9,2.6h-2.1l4.5-13.2H72.1z M71.4,15L71.4,15l-1.5,4.8h2.9L71.4,15z"/>
	<path d="M113.6,11.2c2.7,0,5.7,0.1,5.7,6.8c0,5-3.4,6.4-6.7,6.4h-1.6V11.2H113.6z M112.9,12.7l0,9.7c4.3,0,4.7-2.1,4.7-4.4
		C117.6,14.8,117.3,12.7,112.9,12.7z"/>
	<path d="M121.9,11.2h2.8c1.7,0,4.4,0.4,4.4,3.4c0,1.2-0.5,3.1-2.1,3.4l3.4,6.4h-2.3l-2.9-5.5l-1.3,0v5.5h-1.9V11.2z M127.3,14.6
		c0-1.3-1.1-1.9-2.9-1.9h-0.6v4.1C126.3,16.8,127.3,16.3,127.3,14.6z"/>
	<path d="M134.2,24.5h-1.8V11.2h1.8V24.5z"/>
	<path d="M139.2,11.2c2.1,0,6.3,0.1,6.3,6.8c0,5.2-3.9,6.4-7,6.4h-1.4V11.2H139.2z M138.8,12.7v9.7c3.1,0.1,4.8-1.1,4.8-4.4
		C143.6,13.7,142,12.6,138.8,12.7z"/>
	<path d="M151.3,5.3v25.8H150V5.3H151.3z"/>
	<path d="M162.4,22.9v-8.6h0l-2.5,8.6h-1.3l-2.4-8.6h0v8.6h-1.3V12.5h2.1l2.3,8.2h0.1l2.3-8.2h2.1v10.4H162.4z"/>
	<path d="M166.1,22.9V12.5h6.4v1.2h-5.2V17h5v1.1h-5v3.6h5.3v1.2H166.1z M169.1,11.7h-1l1.3-2.1h1.2L169.1,11.7z"/>
	<path d="M177.8,16.4l2-3.9h1.6l-2.7,4.9l3.1,5.5H180l-2.3-4.4l-2.3,4.4h-1.6l3-5.5l-2.7-4.9h1.6L177.8,16.4z"/>
	<path d="M183,22.9V12.5h1.3v10.4H183z"/>
	<path d="M192.1,22.8c-0.5,0.2-1,0.4-1.7,0.4c-0.6,0-1.2-0.1-1.7-0.4c-0.5-0.3-0.9-0.7-1.3-1.1c-0.3-0.5-0.6-1.1-0.8-1.7
		c-0.2-0.7-0.3-1.4-0.3-2.2c0-0.8,0.1-1.5,0.3-2.2c0.2-0.7,0.5-1.2,0.8-1.7c0.4-0.5,0.8-0.9,1.3-1.1c0.5-0.3,1.1-0.4,1.7-0.4
		c0.6,0,1.1,0.1,1.6,0.3c0.5,0.2,0.9,0.5,1.2,0.9l-0.9,0.9c-0.2-0.3-0.5-0.5-0.8-0.7c-0.3-0.2-0.7-0.2-1-0.2c-0.4,0-0.8,0.1-1.2,0.3
		c-0.3,0.2-0.6,0.5-0.8,0.9c-0.2,0.4-0.4,0.8-0.5,1.3c-0.1,0.5-0.2,1.1-0.2,1.6c0,0.6,0.1,1.1,0.2,1.6c0.1,0.5,0.3,1,0.5,1.3
		c0.2,0.4,0.5,0.7,0.8,0.9c0.3,0.2,0.7,0.3,1.2,0.3c0.4,0,0.8-0.1,1.1-0.3s0.6-0.4,0.7-0.7l0.9,0.9
		C192.9,22.2,192.6,22.5,192.1,22.8z"/>
	<path d="M204.1,17.7c0,0.8-0.1,1.5-0.3,2.2c-0.2,0.7-0.5,1.2-0.8,1.7c-0.4,0.5-0.8,0.8-1.3,1.1s-1.1,0.4-1.7,0.4
		c-0.6,0-1.2-0.1-1.7-0.4c-0.5-0.3-0.9-0.6-1.3-1.1c-0.4-0.5-0.6-1.1-0.8-1.7c-0.2-0.7-0.3-1.4-0.3-2.2c0-0.8,0.1-1.5,0.3-2.2
		c0.2-0.7,0.4-1.2,0.8-1.7c0.3-0.5,0.8-0.8,1.3-1.1c0.5-0.3,1.1-0.4,1.8-0.4c0.6,0,1.2,0.1,1.7,0.4s0.9,0.6,1.3,1.1
		c0.4,0.5,0.6,1,0.8,1.7C204,16.1,204.1,16.9,204.1,17.7z M202.5,17.7c0-0.6-0.1-1.1-0.2-1.7c-0.1-0.5-0.3-1-0.5-1.3
		c-0.2-0.4-0.5-0.7-0.8-0.9c-0.3-0.2-0.7-0.3-1.1-0.3c-0.4,0-0.8,0.1-1.1,0.3c-0.3,0.2-0.6,0.5-0.8,0.9c-0.2,0.4-0.4,0.8-0.5,1.3
		c-0.1,0.5-0.2,1.1-0.2,1.7c0,0.6,0.1,1.1,0.2,1.7c0.1,0.5,0.3,1,0.5,1.3c0.2,0.4,0.5,0.7,0.8,0.9c0.3,0.2,0.7,0.3,1.1,0.3
		c0.4,0,0.8-0.1,1.1-0.3c0.3-0.2,0.6-0.5,0.8-0.9c0.2-0.4,0.4-0.8,0.5-1.3C202.4,18.8,202.5,18.3,202.5,17.7z"/>
	<polygon points="97.3,12.3 97.2,11.2 95.8,11.2 95.5,12.2 93.4,19.9 91.3,12.2 91.1,11.2 89.7,11.2 89.6,12.3 88,24.5 89.7,24.5 
		90.7,16.7 92.5,23.2 92.9,24.4 93.4,24.5 94,24.4 94.3,23.2 96.1,16.7 97.2,24.5 98.9,24.5 	"/>
	<polygon points="32.3,12.3 32.1,11.2 30.8,11.2 30.5,12.2 28.4,19.9 26.3,12.2 26,11.2 24.7,11.2 24.5,12.3 22.9,24.5 24.7,24.5 
		25.7,16.7 27.5,23.2 27.8,24.4 28.4,24.5 29,24.4 29.3,23.2 31.1,16.7 32.1,24.5 33.9,24.5 	"/>
	<path d="M108.7,21.6l-0.6-1.8l-2.4-7.7l-0.3-0.8H104l-0.3,0.8l-2.4,7.7l-0.6,1.8l-0.9,2.8h2l0.9-2.8h4.1l0.9,2.8h2L108.7,21.6z
		 M103.2,19.8l1.5-4.6l1.5,4.6H103.2z"/>
	<path d="M24.3,4.2c-7.6,0-13.7,6.1-13.7,13.7c0,7.6,6.1,13.7,13.7,13.7C31.9,31.7,38,25.5,38,18C38,10.4,31.9,4.2,24.3,4.2z
		 M24.3,30.1c-6.7,0-12.2-5.5-12.2-12.2c0-6.7,5.5-12.2,12.2-12.2c6.7,0,12.2,5.5,12.2,12.2C36.5,24.7,31.1,30.1,24.3,30.1z"/>
</g>
</svg>
