<?xml version="1.0" encoding="utf-8"?>
<!-- Generator: Adobe Illustrator 23.0.3, SVG Export Plug-In . SVG Version: 6.00 Build 0)  -->
<svg version="1.1" id="Layer_1" xmlns="http://www.w3.org/2000/svg" xmlns:xlink="http://www.w3.org/1999/xlink" x="0px" y="0px"
	 viewBox="0 0 1274 157.5" style="enable-background:new 0 0 1274 157.5;" xml:space="preserve">
<style type="text/css">
	.st0{fill:#FFFFFF;}
</style>
<g>
	<g>
		<g>
			<path class="st0" d="M31.5,50.1c9.1,0,15.5,2.6,19,7.9c3.6,5.3,5.3,14.4,5.3,27.4s-2.3,22.2-6.8,27.6c-4.5,5.4-12.9,8.1-25.2,8.1
				c-5.1,0-11.2-0.4-18.3-1.1L2,119.9V21.1h8.2v34C17.3,51.8,24.4,50.1,31.5,50.1z M10.2,113c6.4,0.5,11.5,0.8,15.4,0.8
				s7.4-0.5,10.5-1.6c3.1-1.1,5.5-2.9,7.2-5.5s2.8-5.6,3.4-8.9c0.5-3.3,0.8-7.7,0.8-13.2c0-9.7-1.2-16.6-3.5-20.8
				c-2.3-4.2-6.7-6.3-13.1-6.3c-3.1,0-6.4,0.4-9.8,1.2c-3.5,0.8-6.2,1.6-8.1,2.4l-2.7,1.1V113z"/>
			<path class="st0" d="M65.6,51.5h8.3l18.2,61.3H97l18.3-61.3h8.3l-29.5,99.1H86l9.2-30.8h-9.4L65.6,51.5z"/>
		</g>
	</g>
	<g>
		<path class="st0" d="M945.1,105.1h-11l-1.9,3.5c-3.2,0.3-6.7,0.5-10.3,0.5c-22.4,0-25.8-5.1-25.8-30.1c0-25.2,3.4-31,25.8-31
			c3.9,0,7.7,0.2,11.1,0.6l2.2,3.4l9.9,0.1l0,0l0.2-13.2c0,0-12.5-3.6-27.6-3.6c-28.1,0-38.5,7.6-38.5,43.7c0,36.1,10.4,45,38.5,45
			c18.7,0,27.6-5.9,27.6-5.9L945.1,105.1z"/>
		<path class="st0" d="M1021.8,105.1h-11l-1.9,3.5c-3.2,0.3-6.7,0.5-10.3,0.5c-22.4,0-25.8-5.1-25.8-30.1c0-25.2,3.4-31,25.8-31
			c3.9,0,7.7,0.2,11.1,0.6l2.2,3.4l9.9,0.1l0,0l0.2-13.2c0,0-12.5-3.6-27.6-3.6c-28.1,0-38.6,7.6-38.6,43.7c0,36.1,10.4,45,38.6,45
			c18.7,0,27.6-5.9,27.6-5.9L1021.8,105.1z"/>
		<path class="st0" d="M860.4,108.4V35.4h-15.9l0,73.2c-2.9,1.1-12.8,1.6-25.4,0.7c-7.7-0.6-10.5-4.9-10.5-13.3V50.3
			c0-14.6-9.2-14.9-11.1-14.9c-1.9,0-8.9,0-8.9,0v13l4.3,1.1c0,0,0,44.3,0,49.2c0,15.4,7.7,23.5,21.4,23.5c12.9,0,14.4,0,23.7,0
			l6.5-11.4c0,0,2.1,11.4,12.1,11.4h7.3v-10.5L860.4,108.4z"/>
		<path class="st0" d="M236.4,122.5c-10.2,0-11.5-9.7-11.5-9.7l-17.6,9.8c0,0-1,0.1-9.2,0.1c-30.2,0-34.3-17.8-34.3-43.3
			c0-24.7,4.4-44.6,32.3-44.6c7.7,0,10.8,1.1,16.3,1.8l11.9,8.6V0h15.9v107.8l3.6,2.4v12.2H236.4z M224.3,50
			c-2-0.2-13.2-1.2-22.4-1.2c-18.1,0-21.7,8.2-21.7,31.4c0,25.5,4,29.4,22.1,29.4c10.7,0,22-2.1,22-2.1V50z M240.2,0"/>
		<path class="st0" d="M437.5,122.3V48.6l-3.7-4.7v-8.5h19.6v87H437.5z"/>
		<path class="st0" d="M644.5,108.7c0,0,0-43.7,0-48.7c0-20.3-1.7-24.6-22.2-24.6c-9.6,0-15.7,0-18.3,0c-2,0-13,8.2-13,8.2
			s-2.6-8.2-12.2-8.2h-7.4v12.1l3.6,2.9l0,72.4h16.3c0,0,0.1-67,0.1-69.6c0,0,7.6-4.7,20.8-4.7c3.7,0,4.6,0,4.6,0
			c9,0,12.3,0.7,12.3,11.9v48.2c0,10.3,3.7,14.2,12,14.2c1.9,0,7.3,0,7.3,0v-11.1L644.5,108.7z"/>
		<path class="st0" d="M668.2,58.1V37.2h21.1v20.9H668.2z M668.2,120.9V100h21.1v20.9H668.2z"/>
		<path class="st0" d="M299.4,108.8c16.3,0,24.9-2.9,24.9-2.9l4.1,12c0,0-9.1,5.1-27.7,5.1c-27.3,0-43.8-5.1-43.8-43.8
			c0-11.5,1.6-22.4,4.3-28.8c4.8-11.6,18.2-15,37.3-15c14.8,0,25.5,1.6,31.1,8.6c4.4,5.9,6.2,11.3,6.2,25.6c0,3.3-0.2,6.4-0.4,11
			l-51.2,6.2l-10.8-7.4c0,0,0.1,19.5,4.7,24.2C282.8,108.2,288.3,108.8,299.4,108.8z M300.3,47.7c-25.9,0-25.7,5.3-26.7,29.5L321,69
			C321,52.1,319.6,47.7,300.3,47.7z"/>
		<path class="st0" d="M1075.7,108.8c16.3,0,24.9-2.9,24.9-2.9l4.1,12c0,0-9.1,5.1-27.7,5.1c-27.3,0-43.8-5.1-43.8-43.8
			c0-11.5,1.6-22.4,4.3-28.8c4.8-11.6,18.2-15,37.3-15c14.8,0,25.5,1.6,31.1,8.6c4.5,5.9,6.2,11.3,6.2,25.6c0,3.3-0.2,6.4-0.3,11
			l-51.2,6.2l-10.8-7.4c0,0,0.1,19.5,4.7,24.2C1059.1,108.2,1064.7,108.8,1075.7,108.8z M1076.6,47.7c-25.9,0-25.7,5.3-26.7,29.5
			l47.4-8.2C1097.3,52.1,1095.9,47.7,1076.6,47.7z"/>
		<g>
			<path class="st0" d="M384.5,123.7c-20,0-32.4-5.4-32.4-5.4l3.3-11.7c0,0,13.8,3.7,28.3,3.7c13.9,0,19.5-4.7,19.5-12.9
				c0-11.1-6.3-9.1-20.9-10.2c-17.3-1.1-31.8-0.9-31.8-24.8c0-21.7,11.8-27.3,34.6-27.3c15.9,0,27.8,3.9,27.8,3.9L409.8,51
				c0,0-10.6-2-24.5-2c-14.6,0-20.1,2.5-20.1,12.1c0,10.7,3.3,11.3,21.4,11.3c19.2,0,31.7,0.9,31.7,24.6
				C418.4,118.7,404.7,123.7,384.5,123.7z"/>
		</g>
		<g>
			<path class="st0" d="M1160.2,123.9c-20,0-32.4-5.4-32.4-5.4l3.3-11.7c0,0,13.8,3.7,28.3,3.7c13.8,0,19.5-4.8,19.5-12.9
				c0-11.1-6.3-9.1-20.9-10.2c-17.3-1.1-31.8-0.9-31.8-24.8c0-21.7,11.8-27.3,34.6-27.3c15.9,0,27.8,3.9,27.8,3.9l-3.1,11.8
				c0,0-10.6-2-24.5-2c-14.6,0-20.1,2.5-20.1,12.1c0,10.7,3.3,11.3,21.4,11.3c19.2,0,31.7,0.9,31.7,24.6
				C1194.1,118.8,1180.3,123.9,1160.2,123.9z"/>
		</g>
		<g>
			<path class="st0" d="M1237.9,123.9c-20,0-32.4-5.4-32.4-5.4l3.3-11.7c0,0,13.8,3.7,28.3,3.7c13.8,0,19.5-4.8,19.5-12.9
				c0-11.1-6.3-9.1-20.9-10.2c-17.3-1.1-31.8-0.9-31.8-24.8c0-21.7,11.8-27.3,34.6-27.3c15.9,0,27.8,3.9,27.8,3.9l-3.1,11.8
				c0,0-10.6-2-24.5-2c-14.6,0-20.1,2.5-20.1,12.1c0,10.7,3.3,11.3,21.4,11.3c19.2,0,31.7,0.9,31.7,24.6
				C1271.8,118.8,1258.1,123.9,1237.9,123.9z"/>
		</g>
		<g>
			<path class="st0" d="M742.5,123.9c-20,0-32.3-5.4-32.3-5.4l3.2-11.7c0,0,13.8,3.7,28.3,3.7c13.8,0,19.5-4.8,19.5-12.9
				c0-11.1-6.3-9.1-20.9-10.2c-17.3-1.1-31.8-0.9-31.8-24.8c0-21.7,11.8-27.3,34.6-27.3c15.9,0,27.8,3.9,27.8,3.9l-3.1,11.8
				c0,0-10.6-2-24.5-2c-14.6,0-20.1,2.5-20.1,12.1c0,10.7,3.3,11.3,21.4,11.3c19.2,0,31.7,0.9,31.7,24.6
				C776.4,118.8,762.7,123.9,742.5,123.9z"/>
		</g>
		<g>
			<path class="st0" d="M557.3,122c0-9.7-5.5-13.2-22.3-12.6c-5.9,0.2-15.6,0.3-28.3,0.3c-10.7,0-16.5-3.6-16.5-14.5
				c0-3.1,0-6.1,0-6.1l10.1,8.6c13.2,0.4,23.1,0.3,29.1,0c14.8-0.8,17.4-9.1,18.9-16.9c0.9-4.7,1.2-18.2,0.2-23.4l-9.4-8l15.3-1.8
				l0-12.2c-31.5,0-28.7,0-41.1,0c-26.9,0-36.5,6.6-38.2,26c-0.7,8.4-1,27.5-0.2,34.6c2.2,19.2,7.7,26.8,34.1,26.8
				c6.1,0,10.5,0,24.4,0c4.6,0,5.8,0.8,6.6,2.4c0.5,1,0.5,3.7-0.2,5c-0.9,1.8-0.9,1.8-14.6,10.4c-1.9,1.2-20,12.3-20,12.3l19.9,5.4
				c0,0,9.1-6,16-11.4c13.2-10.2,15.5-12.5,16.1-19.4C557.3,126.6,557.3,124,557.3,122z M491.1,60.8c0.9-5.4,3.1-9.4,11-11
				c8.1-1.6,19.8-1.2,24.3,0.1c5.2,1.5,6.8,3.9,7.6,10.4c0.7,5.4,0.7,9.9,0,13.7c-1.9,10.3-0.8,12.2-43.8,10.3
				C490.2,71.7,490.4,65.1,491.1,60.8z"/>
		</g>
	</g>
</g>
</svg>
