<?xml version="1.0" encoding="utf-8"?>
<!-- Generator: Adobe Illustrator 23.0.3, SVG Export Plug-In . SVG Version: 6.00 Build 0)  -->
<svg version="1.1" id="Layer_1" xmlns="http://www.w3.org/2000/svg" xmlns:xlink="http://www.w3.org/1999/xlink" x="0px" y="0px"
	 viewBox="0 0 1274 218" style="enable-background:new 0 0 1274 218;" xml:space="preserve">
<style type="text/css">
	.st0{fill:#FFFFFF;}
</style>
<g>
	<g>
		<path class="st0" d="M233.7,135.6l-0.1-66.5c0,0,0.8-20.6-12.7-23.5c-15.8-3.4-42-1.1-66.3,4.7l0.1,14.8c0,0,28.5-5.8,47.8-4.5
			c9.8,0.7,10.9,7.4,10.9,10.6c0,3.2,0,17.5,0,17.5l-10-3.5c0,0-25.7,3.8-31.9,5.4c-11.2,2.9-24.3,5.8-24.3,25.8v10.7
			c0,11.5,4.4,25.4,21.5,27.3c3,0.3,14.8,0.9,21.7-1.3c8.6-3.5,23.7-10.4,23.7-10.4c0.5,4.7,6.2,11.5,18.5,11.5h6l0-15.3
			L233.7,135.6z M213.5,132.5c-14,5.6-20.9,5.9-27.9,5.9c-15.7,0-19-2.6-19-14.1c0-14.1,0.6-14.8,8.5-18.6c3.5-1.7,38.5-12,38.5-12
			L213.5,132.5z"/>
		<path class="st0" d="M98.3,46.3l6.3,10.5c2.1,1.2,12.1-10,14.5-10.3c3.3-0.4,11.7-1.4,21.6-0.2l0,16.7c-20.4-3.6-35,3.3-35,3.3
			v87.3H84.6V46.3H98.3z"/>
		<path class="st0" d="M643.7,46.3l6.3,10.5c2.1,1.2,12.1-10,14.5-10.3c3.3-0.4,11.7-1.4,21.6-0.2l0,16.7c-20.4-3.6-35,3.3-35,3.3
			v87.3H630V46.3H643.7z"/>
		<path class="st0" d="M1069.2,152.8c-40.3,0-47.6-9.6-47.6-54.7c0-45.1,10.7-55.9,47.6-55.9c37.9,0,47.5,10.8,47.5,55.9
			C1116.7,143.2,1109.7,152.8,1069.2,152.8z M1069.2,59.5c-24.1,0-27.2,5.1-27.2,38.5s3.9,38.2,28,38.2c24.3,0,26.5-4.7,26.5-38.2
			S1093.5,59.5,1069.2,59.5z"/>
		<g>
			<path class="st0" d="M403,154.5c-24.9,0-40.3-6.7-40.3-6.7l4.1-14.6c0,0,17.2,4.6,35.2,4.6c17.2,0,24.3-5.9,24.3-16
				c0-13.8-7.8-12.8-26-14.2c-21.5-1.4-39.5,0.4-39.5-29.3c0-27,14.7-33.9,43.1-33.9c19.7,0,34.6,4.8,34.6,4.8L434.4,64
				c0,0-13.2-2.4-30.4-2.4c-18.2,0-24.9,3.1-24.9,15.1c0,13.4,4.1,16,26.6,16c23.9,0,39.4-0.8,39.4,28.7
				C445.1,148.3,428,154.5,403,154.5z"/>
		</g>
		<path class="st0" d="M558,152.8c-40.3,0-47.6-9.6-47.6-54.7c0-45.1,10.7-55.9,47.6-55.9c37.9,0,47.5,10.8,47.5,55.9
			C605.5,143.2,598.5,152.8,558,152.8z M558,59.5c-24.1,0-27.2,5.1-27.2,38.5s3.9,38.2,28,38.2c24.3,0,26.5-4.7,26.5-38.2
			S582.3,59.5,558,59.5z"/>
		<path class="st0" d="M35.8,123.5V60.2h23L68,43.6H35.8V14.2H15.5v29.4H0.9v16.6h14.5v64.3c0,16.9,9,28.2,26.7,28.2
			c3,0,8.6,0,11.2-0.8l5.3-15.1C34.4,138.1,35.8,132.4,35.8,123.5z"/>
		<path class="st0" d="M1160.9,153.2c4.3,0,10.4,0,10.4,0c9.7,0,13.7-3.9,17-13.3c1.2-3.4,9.4-34.4,9.4-34.4l4.5,0.2
			c0,0,8.5,30.5,10.8,36.8l0,0c2,8,8.6,10.5,18.6,10.5c0,0,4.7,0,7.5,0c10,0,13.8-2.9,16.9-15.2c1.1-4.5,16.8-93.9,16.8-93.9l-21,0
			l-17,92.8h-2.3c-3.1,0-3.9-3.1-4.8-5.9L1215,86.5l-30.6,0c0,0-12.3,44.4-12.8,45.6c-0.9,2.3-1.3,4.7-3.9,4.7c-2.1,0-2.5,0-2.5,0
			L1148.3,44H1127c0,0,16.3,90,16.9,93.7C1145.3,145.9,1150.4,153.2,1160.9,153.2z"/>
		<path class="st0" d="M798,44c-4.3,0-10.4,0-10.4,0c-9.7,0-13.7,3.9-17,13.3c-1.2,3.4-9.4,34.4-9.4,34.4l-4.5-0.2
			c0,0-8.5-30.5-10.8-36.8l0,0c-2-8-8.6-10.5-18.6-10.5c0,0-4.7,0-7.5,0c-10,0-13.8,2.9-16.9,15.2c-1.1,4.5-16.8,93.9-16.8,93.9
			l21,0l17-92.8h2.3c3.1,0,3.9,3.1,4.8,5.9l12.6,44.5l30.6,0c0,0,12.3-44.4,12.8-45.6c0.9-2.3,1.3-4.7,3.9-4.7c2.1,0,2.5,0,2.5,0
			l16.9,92.8h21.3c0,0-16.3-90-16.9-93.7C813.6,51.3,808.5,44,798,44z"/>
		<path class="st0" d="M346.3,133.9c0,0,0-52.9,0-59.4c0-26-2.2-31.5-28.5-31.5c-12.3,0-20.2,0.1-23.5,0.1
			c-2.5,0-16.7,10.5-16.7,10.5S274.3,43,261.9,43h-9.5v15.5l4.6,3.7l-0.1,89.8h20.9c0,0,0.1-82.9,0.1-86.1c0,0,9.7-6,26.6-6
			c4.7,0,5.9,0,5.9,0c11.5,0,15.7,0.9,15.7,15.2v58.7c0,13.3,4.7,18.2,15.4,18.2c2.5,0,9.3,0,9.3,0v-14.3L346.3,133.9z"/>
		<path class="st0" d="M997,133.9c0,0,0-52.9,0-59.4c0-26-2.2-31.5-28.5-31.5C956.2,43,948.3,43,945,43c-2.5,0-16.7,10.5-16.7,10.5
			S924.9,43,912.6,43h-9.5v15.5l4.6,3.7l-0.1,89.8h20.9c0,0,0.1-82.9,0.1-86.1c0,0,9.7-6,26.6-6c4.7,0,5.9,0,5.9,0
			c11.5,0,15.7,0.9,15.7,15.2v58.7c0,13.3,4.7,18.2,15.4,18.2c2.5,0,9.3,0,9.3,0v-14.3L997,133.9z"/>
		<path class="st0" d="M850.4,73V46.8h26.4V73H850.4z M850.4,151.6v-26.2h26.4v26.2H850.4z"/>
		<path class="st0" d="M496.6,43.3h-17.3c0-5.2,0-8.4,0-9.4c0-14.2,5.7-18.4,10.9-19.5l0-14.5c-25.3,6.1-30.1,15.5-31,43.3h-10.5
			v16.8h10.4c0,1.7,0,93,0,93h20.4l-0.1-93h17.3V43.3z"/>
	</g>
</g>
</svg>
