<svg xmlns="http://www.w3.org/2000/svg" xmlns:xlink="http://www.w3.org/1999/xlink" x="0px" y="0px" style="enable-background:new 0 0 838 991" version="1.1" viewBox="0 0 838 991" xml:space="preserve">
    <g id="Text">
        <text style="fill:#fff;font-weight:400;font-size:33.64px" transform="matrix(1 0 0 1 441.6548 31.0205)">
            Hyperlocation
        </text>
        <text style="fill:#fff;font-weight:400;font-size:33.64px" transform="matrix(1 0 0 1 678.7001 228.5161)">
            Cross
        </text>
        <text style="fill:#fff;font-weight:400;font-size:33.64px" transform="matrix(1 0 0 1 668.7001 679.9622)">
            Artificial
        </text>
        <text style="fill:#fff;font-weight:400;font-size:33.64px" transform="matrix(1 0 0 1 475.4746 942.1055)">
            UX/UI
        </text>
        <text style="fill:#fff;font-weight:400;font-size:33.64px" transform="matrix(1 0 0 1 226.1066 31.0205)">
            Cloud
        </text>
        <text style="fill:#fff;font-weight:400;font-size:33.64px" transform="matrix(1 0 0 1 2.8481 705.2568)">
            Augmented
        </text>
        <text style="fill:#fff;font-weight:400;font-size:33.64px" transform="matrix(1 0 0 1 21.8985 739.0569)">
            Reality
        </text>
        <text style="fill:#fff;font-weight:400;font-size:33.64px" transform="matrix(1 0 0 1 18.8481 268.5133)">
            Crypto
        </text>
        <text style="fill:#fff;font-weight:400;font-size:33.64px" transform="matrix(1 0 0 1 2.4481 301.3133)">
            Currency
        </text>
        <text style="fill:#fff;font-weight:400;font-size:33.64px" transform="matrix(1 0 0 1 174.1315 941.9385)">
            Augmented
        </text>
        <text style="fill:#fff;font-weight:400;font-size:33.64px" transform="matrix(1 0 0 1 207.5315 974.7385)">
            Reality
        </text>
        <text style="fill:#fff;font-weight:400;font-size:33.64px" transform="matrix(1 0 0 1 662.0335 263.5348)">
            Platform
        </text>
        <text style="fill:#fff;font-weight:400;font-size:33.64px" transform="matrix(1 0 0 1 641.7 711.3136)">
            Intelligence
        </text>
    </g>
    <g id="Figure" style="transform:translateX(10px)">
        <linearGradient id="SVGID_1_X" x1="7891.32" x2="8042.42" y1="-3438.14" y2="-3438.14" gradientTransform="rotate(90 2410.25 -5403.65)" gradientUnits="userSpaceOnUse">
            <stop offset="0" stop-color="#00f"/>
            <stop offset="1" stop-color="#0ff"/>
        </linearGradient>
        <path fill="url(#SVGID_1_X)" d="M257.8 77.4l85.8 151.1h288.1L544.6 77.4z"/>
        <linearGradient id="SVGID_2_X" x1="7891.32" x2="8690.44" y1="-3393.97" y2="-3393.97" gradientTransform="rotate(90 2410.25 -5403.65)" gradientUnits="userSpaceOnUse">
            <stop offset="0" stop-color="#00f"/>
            <stop offset="1" stop-color="#0ff"/>
        </linearGradient>
        <path fill="url(#SVGID_2_X)" d="M544.6 77.4L169.4 726.6s88.4 153.7 87.1 149.8c-1.3-3.8 375.2-647.9 375.2-647.9L544.6 77.4z"/>
        <linearGradient id="SVGID_3_X" x1="8042.42" x2="8242.18" y1="-3279.36" y2="-3279.36" gradientTransform="rotate(90 2410.25 -5403.65)" gradientUnits="userSpaceOnUse">
            <stop offset="0" stop-color="#00f"/>
            <stop offset="1" stop-color="#0ff"/>
        </linearGradient>
        <path fill="url(#SVGID_3_X)" d="M343.6 228.5L228.3 428.3"/>
        <linearGradient id="SVGID_4_X" x1="7891.32" x2="8692.93" y1="-3365.15" y2="-3365.15" gradientTransform="rotate(90 2410.25 -5403.65)" gradientUnits="userSpaceOnUse">
            <stop offset="0" stop-color="#00f"/>
            <stop offset="1" stop-color="#0ff"/>
        </linearGradient>
        <path fill="url(#SVGID_4_X)" d="M257.8 77.4L602.3 678 485.7 879 141.3 278.5z"/>
        <linearGradient id="SVGID_5_X" x1="8616.74" x2="8616.74" y1="-3162.83" y2="-3480.4" gradientTransform="rotate(90 2410.25 -5403.65)" gradientUnits="userSpaceOnUse">
            <stop offset="0" stop-color="#0ff"/>
            <stop offset="1" stop-color="#00f"/>
        </linearGradient>
        <path fill="url(#SVGID_5_X)" d="M487 879H256.5l-87.1-152.4h228.9z"/>
    </g>
</svg>
